<svg width="18" height="18" viewBox="0 0 18 18" fill="none" xmlns="http://www.w3.org/2000/svg">
<path d="M17.8191 4.10158L15.6816 2.37325C15.5364 2.2754 15.3784 2.20001 15.2127 2.14941C15.0476 2.09335 14.8758 2.06219 14.7024 2.05686H8.55L9.2709 6.77908H14.7024C14.85 6.77908 15.0345 6.74414 15.2118 6.68652C15.3891 6.62891 15.5601 6.54958 15.6807 6.46363L17.8182 4.73341C17.9397 4.64747 18 4.53319 18 4.41797C18 4.30275 17.9397 4.18847 17.8191 4.10158ZM7.65 0.167969H6.75C6.63065 0.167969 6.51619 0.217721 6.4318 0.306279C6.34741 0.394838 6.3 0.51495 6.3 0.640191V3.94575H3.2976C3.1482 3.94575 2.9646 3.98069 2.7873 4.03925C2.6091 4.09591 2.439 4.1743 2.3184 4.26214L0.1809 5.99047C0.0594 6.07641 0 6.19164 0 6.30686C0 6.42114 0.0594 6.53541 0.1809 6.62325L2.3184 8.35347C2.439 8.43941 2.6091 8.51875 2.7873 8.57541C2.9646 8.63302 3.1482 8.66797 3.2976 8.66797H6.3V16.6957C6.3 16.821 6.34741 16.9411 6.4318 17.0297C6.51619 17.1182 6.63065 17.168 6.75 17.168H7.65C7.76935 17.168 7.88381 17.1182 7.9682 17.0297C8.05259 16.9411 8.1 16.821 8.1 16.6957V0.640191C8.1 0.51495 8.05259 0.394838 7.9682 0.306279C7.88381 0.217721 7.76935 0.167969 7.65 0.167969Z" fill="white"/>
</svg>
