<svg width="37" height="38" viewBox="0 0 37 38" fill="none" xmlns="http://www.w3.org/2000/svg">
<path d="M29.2917 9.41797H7.70834C5.15403 9.41797 3.08334 11.4887 3.08334 14.043V18.2376L13.6243 21.7513H23.3757L33.9167 18.2376V14.043C33.9167 11.4887 31.846 9.41797 29.2917 9.41797Z" fill="#C3E8F1"/>
<path d="M15.4167 9.41797V7.8763H21.5833V9.41797H24.6667V7.8763C24.6647 6.17422 23.2854 4.79491 21.5833 4.79297H15.4167C13.7146 4.79491 12.3353 6.17422 12.3333 7.8763V9.41797H15.4167ZM13.6243 21.7513L3.08334 18.2376V27.918C3.08613 30.4711 5.15517 32.5402 7.70834 32.543H29.2917C31.8448 32.5402 33.9139 30.4711 33.9167 27.918V18.2376L23.3757 21.7513H13.6243Z" fill="#027794"/>
</svg>
