<svg width="37" height="38" viewBox="0 0 37 38" fill="none" xmlns="http://www.w3.org/2000/svg">
<path d="M23.125 3.25131C17.9185 3.2535 13.4564 6.97385 12.5179 12.0951C16.9995 9.64271 22.6205 11.2877 25.0729 15.7692C26.5869 18.5359 26.5869 21.8833 25.0729 24.65C30.9332 23.5765 34.8137 17.9555 33.7402 12.0952C32.8014 6.97075 28.3347 3.24934 23.125 3.25131Z" fill="#C3E8F1"/>
<path d="M10.7917 34.0846C15.0489 34.0846 18.5 30.6335 18.5 26.3763C18.5 22.1191 15.0489 18.668 10.7917 18.668C6.53448 18.668 3.08334 22.1191 3.08334 26.3763C3.08334 30.6335 6.53448 34.0846 10.7917 34.0846Z" fill="#027794"/>
<path d="M16.9583 10.9596C12.2048 10.9601 8.22539 14.5634 7.75458 19.2936C11.6639 17.614 16.1947 19.4215 17.8744 23.3309C18.7086 25.2726 18.7086 27.4717 17.8744 29.4134C22.9577 28.9079 26.6688 24.3773 26.1633 19.294C25.6929 14.563 21.7126 10.9592 16.9583 10.9596Z" fill="#52A0B4"/>
</svg>
