<svg width="29" height="31" viewBox="0 0 29 31" fill="none" xmlns="http://www.w3.org/2000/svg">
<path opacity="0.4" d="M20.9611 0.083374H8.04042C3.35375 0.083374 0.625 2.82754 0.625 7.52962V23.455C0.625 28.2342 3.35375 30.9167 8.04042 30.9167H20.9611C25.7233 30.9167 28.375 28.2342 28.375 23.455V7.52962C28.375 2.82754 25.7233 0.083374 20.9611 0.083374Z" fill="#027794"/>
<path d="M8.45667 21.2658H20.5433C21.1585 21.3275 21.6225 21.8517 21.6225 22.4837C21.6225 23.0989 21.1585 23.6246 20.5433 23.6862H8.45667C7.99417 23.7479 7.54708 23.5167 7.30042 23.1312C7.05375 22.7304 7.05375 22.2217 7.30042 21.8362C7.54708 21.4354 7.99417 21.2196 8.45667 21.2658ZM20.5433 14.2343C21.2063 14.2343 21.7458 14.7754 21.7458 15.4383C21.7458 16.1012 21.2063 16.6408 20.5433 16.6408H8.45667C7.79221 16.6408 7.25417 16.1012 7.25417 15.4383C7.25417 14.7754 7.79221 14.2343 8.45667 14.2343H20.5433ZM13.0647 7.25208C13.7292 7.25208 14.2688 7.79166 14.2688 8.45303C14.2688 9.13291 13.7292 9.67249 13.0647 9.67249H8.45667C7.79221 9.67249 7.25417 9.13291 7.25417 8.46999C7.25417 7.80708 7.79221 7.26749 8.45667 7.26749V7.25208H13.0647Z" fill="#027794"/>
</svg>
