<svg width="15" height="16" viewBox="0 0 15 16" fill="none" xmlns="http://www.w3.org/2000/svg">
<path d="M12.9727 3.54004L11.4126 1.98145C11.3026 1.87091 11.1717 1.78321 11.0277 1.72338C10.8837 1.66356 10.7292 1.63278 10.5732 1.63281C10.2554 1.63281 9.95655 1.75732 9.73242 1.98145L8.05371 3.66016C7.94318 3.7702 7.85548 3.90101 7.79565 4.04505C7.73582 4.18909 7.70504 4.34354 7.70508 4.49951C7.70508 4.81738 7.82959 5.11621 8.05371 5.34033L9.28125 6.56787C8.99391 7.20121 8.59442 7.77737 8.10205 8.26855C7.61092 8.76212 7.03481 9.16306 6.40137 9.45215L5.17383 8.22461C5.06378 8.11408 4.93298 8.02638 4.78894 7.96655C4.64489 7.90672 4.49045 7.87594 4.33447 7.87598C4.0166 7.87598 3.71777 8.00049 3.49365 8.22461L1.81348 9.90186C1.70281 10.0121 1.61503 10.1432 1.5552 10.2875C1.49537 10.4318 1.46466 10.5865 1.46484 10.7427C1.46484 11.0605 1.58936 11.3594 1.81348 11.5835L3.37061 13.1406C3.72803 13.4995 4.22168 13.7031 4.72852 13.7031C4.83545 13.7031 4.93799 13.6943 5.03906 13.6768C7.01367 13.3516 8.97217 12.3013 10.5527 10.7222C12.1318 9.14453 13.1807 7.1875 13.5103 5.20703C13.6099 4.60205 13.4092 3.97949 12.9727 3.54004Z" fill="white"/>
</svg>
