<svg width="37" height="38" viewBox="0 0 37 38" fill="none" xmlns="http://www.w3.org/2000/svg">
<path d="M27.3439 22.7101L23.6038 26.149C21.6807 27.8255 19.4212 29.0712 16.977 29.8025L17.9693 34.4324C18.02 34.6688 18.1256 34.89 18.2776 35.0781C18.4295 35.2662 18.6235 35.4159 18.844 35.5152C19.0644 35.6144 19.3051 35.6605 19.5467 35.6496C19.7882 35.6387 20.0238 35.5712 20.2344 35.4524L26.255 32.0567C27.1024 31.5418 27.7643 30.7711 28.1453 29.8557C28.5263 28.9403 28.6067 27.9275 28.3748 26.9635L27.3439 22.7101ZM11.2012 13.6975L14.4212 9.87432L10.4055 8.90542C9.42923 8.56499 8.36275 8.58935 7.40304 8.974C6.44333 9.35864 5.65523 10.0776 5.18431 10.998L1.79235 17.0104C1.6735 17.221 1.60587 17.4566 1.59491 17.6982C1.58395 17.9397 1.62997 18.1805 1.72927 18.401C1.82856 18.6215 1.97833 18.8155 2.16648 18.9674C2.35464 19.1193 2.57588 19.2248 2.81235 19.2754L7.54951 20.2909C8.33485 17.8802 9.57438 15.6421 11.2012 13.6975ZM25.7978 13.7597C26.2552 13.7597 26.7023 13.6241 27.0826 13.37C27.4629 13.1159 27.7593 12.7547 27.9343 12.3322C28.1093 11.9096 28.1551 11.4447 28.0659 10.9961C27.9767 10.5475 27.7564 10.1355 27.433 9.81204C27.1096 9.48863 26.6976 9.26839 26.249 9.17916C25.8004 9.08993 25.3354 9.13573 24.9129 9.31075C24.4903 9.48578 24.1292 9.78218 23.8751 10.1625C23.621 10.5428 23.4853 10.9899 23.4853 11.4472C23.4856 12.0605 23.7293 12.6485 24.1629 13.0822C24.5965 13.5158 25.1846 13.7595 25.7978 13.7597Z" fill="#027794"/>
<path d="M34.8433 3.34688C34.7738 3.08283 34.6354 2.84196 34.4423 2.64888C34.2492 2.45579 34.0083 2.3174 33.7443 2.24784C30.5818 1.42577 27.2514 1.51393 24.1368 2.50214C21.0222 3.49035 18.2501 5.33842 16.1401 7.83339L11.2012 13.6974C8.7339 16.6402 7.1687 20.2328 6.69361 24.0435C6.66314 24.2777 6.68687 24.5157 6.76296 24.7393C6.83904 24.9629 6.96546 25.166 7.13246 25.333L11.9118 30.1123C12.0549 30.2555 12.2248 30.3691 12.4118 30.4466C12.5988 30.5241 12.7993 30.564 13.0017 30.564C13.0462 30.564 13.0906 30.5617 13.1357 30.558C17.005 30.2382 20.6716 28.6939 23.6037 26.149L29.2509 20.9564C31.7547 18.8519 33.6096 16.0797 34.5996 12.9623C35.5896 9.84486 35.6741 6.51044 34.8433 3.34688ZM25.7978 13.7596C25.3404 13.7596 24.8933 13.624 24.513 13.3699C24.1327 13.1158 23.8363 12.7546 23.6613 12.3321C23.4863 11.9095 23.4405 11.4446 23.5297 10.996C23.619 10.5474 23.8392 10.1354 24.1626 9.81195C24.486 9.48854 24.8981 9.2683 25.3466 9.17907C25.7952 9.08984 26.2602 9.13564 26.6828 9.31067C27.1053 9.48569 27.4665 9.78209 27.7206 10.1624C27.9747 10.5427 28.1103 10.9898 28.1103 11.4471C28.1101 12.0604 27.8664 12.6484 27.4327 13.0821C26.9991 13.5157 26.411 13.7594 25.7978 13.7596Z" fill="#C3E8F1"/>
</svg>
