<svg width="37" height="38" viewBox="0 0 37 38" fill="none" xmlns="http://www.w3.org/2000/svg">
<path d="M9.24999 25.6055C8.1828 25.6055 7.13957 25.2891 6.25223 24.6962C5.36489 24.1032 4.67329 23.2605 4.26489 22.2746C3.85649 21.2886 3.74964 20.2037 3.95784 19.157C4.16604 18.1103 4.67994 17.1489 5.43456 16.3942C6.18918 15.6396 7.15063 15.1257 8.19732 14.9175C9.24401 14.7093 10.3289 14.8162 11.3149 15.2246C12.3008 15.633 13.1436 16.3246 13.7365 17.2119C14.3294 18.0993 14.6458 19.1425 14.6458 20.2097C14.6441 21.6402 14.0751 23.0117 13.0635 24.0232C12.052 25.0347 10.6805 25.6038 9.24999 25.6055Z" fill="#0388A9"/>
<path d="M13.3204 23.712C12.8208 24.3051 12.1977 24.7819 11.4946 25.109C10.7915 25.436 10.0254 25.6055 9.24999 25.6055C8.47454 25.6055 7.70846 25.436 7.00537 25.109C6.30227 24.7819 5.67914 24.3051 5.17959 23.712C4.06957 24.4002 3.15312 25.3598 2.51664 26.5002C1.88015 27.6407 1.54462 28.9245 1.54166 30.2305C1.54166 30.6394 1.70408 31.0315 1.9932 31.3206C2.28232 31.6098 2.67445 31.7722 3.08332 31.7722H15.4167C15.8255 31.7722 16.2177 31.6098 16.5068 31.3206C16.7959 31.0315 16.9583 30.6394 16.9583 30.2305C16.9554 28.9245 16.6198 27.6407 15.9833 26.5002C15.3469 25.3598 14.4304 24.4002 13.3204 23.712ZM27.75 25.6055C26.6828 25.6055 25.6396 25.2891 24.7522 24.6962C23.8649 24.1032 23.1733 23.2605 22.7649 22.2746C22.3565 21.2886 22.2496 20.2037 22.4578 19.157C22.666 18.1103 23.1799 17.1489 23.9346 16.3942C24.6892 15.6396 25.6506 15.1257 26.6973 14.9175C27.744 14.7093 28.8289 14.8162 29.8149 15.2246C30.8008 15.633 31.6436 16.3246 32.2365 17.2119C32.8294 18.0993 33.1458 19.1425 33.1458 20.2097C33.1441 21.6402 32.5751 23.0117 31.5635 24.0232C30.552 25.0347 29.1805 25.6038 27.75 25.6055Z" fill="#C3E8F1"/>
<path d="M31.8204 23.712C31.3208 24.3051 30.6977 24.7819 29.9946 25.109C29.2915 25.436 28.5254 25.6055 27.75 25.6055C26.9745 25.6055 26.2085 25.436 25.5054 25.109C24.8023 24.7819 24.1791 24.3051 23.6796 23.712C22.5696 24.4002 21.6531 25.3598 21.0166 26.5003C20.3802 27.6407 20.0446 28.9245 20.0417 30.2305C20.0417 30.6394 20.2041 31.0315 20.4932 31.3207C20.7823 31.6098 21.1744 31.7722 21.5833 31.7722H33.9167C34.3255 31.7722 34.7177 31.6098 35.0068 31.3207C35.2959 31.0315 35.4583 30.6394 35.4583 30.2305C35.4554 28.9245 35.1198 27.6407 34.4833 26.5003C33.8469 25.3598 32.9304 24.4002 31.8204 23.712Z" fill="#027794"/>
<path d="M26.5275 9.09881L23.4441 6.01548C23.1542 5.73072 22.7635 5.57199 22.3571 5.57383C21.9507 5.57567 21.5614 5.73793 21.274 6.02531C20.9867 6.31268 20.8244 6.70192 20.8226 7.10833C20.8207 7.51474 20.9794 7.90543 21.2642 8.1954L21.7159 8.64711H15.2842L15.7359 8.1954C16.022 7.90569 16.1818 7.51456 16.1805 7.10742C16.1792 6.70027 16.0169 6.31016 15.729 6.02227C15.4411 5.73438 15.051 5.57208 14.6438 5.57081C14.2367 5.56954 13.8456 5.72939 13.5559 6.01548L10.4725 9.09881C10.3294 9.24193 10.2158 9.41185 10.1383 9.59888C10.0608 9.78591 10.0209 9.98637 10.0209 10.1888C10.0209 10.3913 10.0608 10.5917 10.1383 10.7788C10.2158 10.9658 10.3294 11.1357 10.4725 11.2788L13.5559 14.3622C13.8456 14.6482 14.2367 14.8081 14.6439 14.8068C15.051 14.8055 15.4411 14.6432 15.729 14.3553C16.0169 14.0674 16.1792 13.6773 16.1805 13.2701C16.1817 12.863 16.0219 12.4718 15.7358 12.1821L15.2841 11.7304H21.7157L21.264 12.1821C20.9749 12.4712 20.8126 12.8633 20.8126 13.2722C20.8126 13.681 20.975 14.0731 21.2641 14.3622C21.5532 14.6512 21.9453 14.8136 22.3541 14.8136C22.763 14.8136 23.1551 14.6512 23.4441 14.3621L26.5275 11.2787C26.6706 11.1356 26.7842 10.9657 26.8617 10.7787C26.9392 10.5917 26.9791 10.3912 26.9791 10.1888C26.9791 9.98634 26.9392 9.78588 26.8617 9.59886C26.7842 9.41184 26.6706 9.24193 26.5275 9.09881Z" fill="#027794"/>
</svg>
