<svg width="24" height="24" viewBox="0 0 20 20" fill="none" xmlns="http://www.w3.org/2000/svg">
<path d="M10.0333 1.66655C5.48331 1.66655 1.77498 5.37489 1.77498 9.92489C1.77498 11.3832 2.15831 12.7999 2.87498 14.0499L1.70831 18.3332L6.08331 17.1832C7.29165 17.8416 8.64998 18.1916 10.0333 18.1916C14.5833 18.1916 18.2916 14.4832 18.2916 9.93322C18.2916 7.72489 17.4333 5.64989 15.875 4.09155C15.111 3.31982 14.201 2.70794 13.198 2.2916C12.1951 1.87525 11.1192 1.66277 10.0333 1.66655M10.0416 3.05822C11.875 3.05822 13.5916 3.77489 14.8916 5.07489C15.5297 5.71268 16.0355 6.47015 16.3801 7.30385C16.7247 8.13756 16.9014 9.03109 16.9 9.93322C16.9 13.7166 13.8166 16.7916 10.0333 16.7916C8.79998 16.7916 7.59165 16.4666 6.54165 15.8332L6.29165 15.6916L3.69165 16.3749L4.38331 13.8416L4.21665 13.5749C3.52826 12.4821 3.16416 11.2164 3.16665 9.92489C3.17498 6.14155 6.24998 3.05822 10.0416 3.05822M7.10831 6.10822C6.97498 6.10822 6.74998 6.15822 6.55831 6.36655C6.37498 6.57489 5.83331 7.08322 5.83331 8.09155C5.83331 9.10822 6.57498 10.0832 6.66665 10.2249C6.78331 10.3666 8.13331 12.4499 10.2083 13.3332C10.7 13.5582 11.0833 13.6832 11.3833 13.7749C11.875 13.9332 12.325 13.9082 12.6833 13.8582C13.0833 13.7999 13.9 13.3582 14.075 12.8749C14.25 12.3916 14.25 11.9832 14.2 11.8916C14.1416 11.8082 14.0083 11.7582 13.8 11.6666C13.5916 11.5499 12.575 11.0499 12.3916 10.9832C12.2 10.9166 12.0833 10.8832 11.925 11.0832C11.7916 11.2916 11.3916 11.7582 11.275 11.8916C11.15 12.0332 11.0333 12.0499 10.8333 11.9499C10.6166 11.8416 9.94998 11.6249 9.16665 10.9249C8.54998 10.3749 8.14165 9.69989 8.01665 9.49155C7.91665 9.29155 8.00831 9.16655 8.10831 9.07489C8.19998 8.98322 8.33331 8.83322 8.41665 8.70822C8.52498 8.59155 8.55831 8.49989 8.62498 8.36655C8.69165 8.22489 8.65831 8.10822 8.60831 8.00822C8.55831 7.91655 8.14165 6.88322 7.96665 6.47489C7.79998 6.07489 7.63331 6.12489 7.49998 6.11655C7.38331 6.11655 7.24998 6.10822 7.10831 6.10822V6.10822Z" fill="white"/>
</svg>
